<svg width="195" height="47" viewBox="0 0 195 47" fill="none" xmlns="http://www.w3.org/2000/svg">
<path d="M15.2161 32.696L25.1521 7.35202H26.5441L35.2321 32.888C35.9041 34.904 36.3521 36.36 36.5761 37.256C36.8321 36.2 37.2801 34.76 37.9201 32.936L46.7521 6.68002H49.1521L37.2001 41.288H35.8561L26.9761 15.848C26.8481 15.432 26.7041 15.016 26.5441 14.6C26.4161 14.184 26.3041 13.816 26.2081 13.496C26.1121 13.176 26.0161 12.904 25.9201 12.68L25.7281 12.104C25.6961 11.944 25.6801 11.848 25.6801 11.816C25.2961 12.968 24.8001 14.296 24.1921 15.8L14.1601 41.288H12.8161L0.768066 6.68002H3.31207L12.0961 32.504C12.5121 33.656 12.8481 34.696 13.1041 35.624C13.3921 36.552 13.5521 37.064 13.5841 37.16C13.7441 36.424 14.2881 34.936 15.2161 32.696Z" fill="#90AF6B"/>
<path d="M56.1601 29.096L51.2161 41H48.7681L63.2161 6.44002H64.5601L79.0561 41H76.4641L71.5201 29.096H56.1601ZM63.7441 10.28C63.7121 10.312 63.6481 10.504 63.5521 10.856C63.1041 12.232 62.6721 13.4 62.2561 14.36L56.9761 27.128H70.7041L65.4241 14.408C64.3041 11.976 63.7441 10.6 63.7441 10.28Z" fill="#90AF6B"/>
<path d="M91.7802 23.576C89.4442 21.912 87.6362 20.328 86.3562 18.824C85.1082 17.32 84.4842 15.496 84.4842 13.352C84.4842 11.176 85.3162 9.43202 86.9802 8.12002C88.6762 6.77602 90.8042 6.10402 93.3642 6.10402H93.4602L93.9882 0.968018H95.9082L95.3802 6.20002C97.8122 6.45602 99.9562 7.00002 101.812 7.83202L100.996 9.70402C99.3322 9.00002 97.3962 8.53602 95.1882 8.31202L93.8442 21.992C96.7562 24.008 98.6922 25.512 99.6522 26.504C101.476 28.424 102.388 30.504 102.388 32.744C102.388 35.656 101.412 37.864 99.4602 39.368C97.5082 40.84 94.9802 41.576 91.8762 41.576L91.4442 46.232H89.5242L90.0042 41.48C86.9322 41.16 84.4522 40.312 82.5642 38.936L83.7162 37.208C85.5082 38.392 87.6682 39.128 90.1962 39.416L91.7802 23.576ZM92.1162 39.464C94.4202 39.432 96.2762 38.872 97.6842 37.784C99.1242 36.664 99.8442 35.208 99.8442 33.416C99.8442 31.592 99.3002 30.088 98.2122 28.904C97.1562 27.688 95.6042 26.344 93.5562 24.872L92.1162 39.464ZM93.2682 8.21602C91.3482 8.24802 89.8282 8.71202 88.7082 9.60802C87.5882 10.472 87.0282 11.688 87.0282 13.256C87.0282 14.792 87.4602 16.136 88.3242 17.288C89.2202 18.44 90.4682 19.592 92.0682 20.744L93.2682 8.21602Z" fill="#90AF6B"/>
<path d="M118.75 8.69602H107.134V6.68002H132.67V8.69602H121.054V41H118.75V8.69602Z" fill="#90AF6B"/>
<path d="M140.07 41V6.68002H156.006V8.69602H142.374V21.32H154.71V23.288H142.374V38.984H156.534V41H140.07Z" fill="#90AF6B"/>
<path d="M176.75 39.32C181.262 39.32 184.878 38.104 187.598 35.672C190.35 33.208 191.726 29.512 191.726 24.584C191.726 19.656 190.174 15.736 187.07 12.824C183.998 9.91202 180.19 8.45602 175.646 8.45602C172.734 8.45602 170.206 8.53602 168.062 8.69602V38.936C170.142 39.192 173.038 39.32 176.75 39.32ZM175.646 6.34402C180.926 6.34402 185.342 7.99202 188.894 11.288C192.446 14.552 194.222 19 194.222 24.632C194.222 27.48 193.758 30.008 192.83 32.216C191.934 34.392 190.686 36.136 189.086 37.448C185.79 40.104 181.678 41.432 176.75 41.432C173.518 41.432 169.854 41.256 165.758 40.904V6.68002C169.022 6.45602 172.318 6.34402 175.646 6.34402Z" fill="#90AF6B"/>
</svg>
